<svg aria-hidden="true" style="position: absolute; width: 0; height: 0; overflow: hidden;" version="1.1" xmlns="http://www.w3.org/2000/svg" xmlns:xlink="http://www.w3.org/1999/xlink">
<defs>
<symbol id="icon-bookmark" viewBox="0 0 20 20">
<title>bookmark</title>
<path d="M14 2v17l-4-4-4 4v-17c0-0.553 0.585-1.020 1-1h6c0.689-0.020 1 0.447 1 1z"></path>
</symbol>
<symbol id="icon-chat" viewBox="0 0 20 20">
<title>chat</title>
<path d="M5.8 12.2v-6.2h-3.8c-1.1 0-2 0.9-2 2v6c0 1.1 0.9 2 2 2h1v3l3-3h5c1.1 0 2-0.9 2-2v-1.82c-0.064 0.014-0.132 0.021-0.2 0.021l-7-0.001zM18 1h-9c-1.1 0-2 0.9-2 2v8h7l3 3v-3h1c1.1 0 2-0.899 2-2v-6c0-1.1-0.9-2-2-2z"></path>
</symbol>
<symbol id="icon-cog" viewBox="0 0 20 20">
<title>cog</title>
<path d="M16.783 10c0-1.049 0.646-1.875 1.617-2.443-0.176-0.584-0.407-1.145-0.692-1.672-1.089 0.285-1.97-0.141-2.711-0.883-0.741-0.74-0.968-1.621-0.683-2.711-0.527-0.285-1.088-0.518-1.672-0.691-0.568 0.97-1.595 1.615-2.642 1.615-1.048 0-2.074-0.645-2.643-1.615-0.585 0.173-1.144 0.406-1.671 0.691 0.285 1.090 0.059 1.971-0.684 2.711-0.74 0.742-1.621 1.168-2.711 0.883-0.285 0.527-0.517 1.088-0.691 1.672 0.97 0.568 1.615 1.394 1.615 2.443 0 1.047-0.645 2.074-1.615 2.643 0.175 0.584 0.406 1.144 0.691 1.672 1.090-0.285 1.971-0.059 2.711 0.682s0.969 1.623 0.684 2.711c0.527 0.285 1.087 0.518 1.672 0.693 0.568-0.973 1.595-1.617 2.643-1.617 1.047 0 2.074 0.645 2.643 1.617 0.584-0.176 1.144-0.408 1.672-0.693-0.285-1.088-0.059-1.969 0.683-2.711 0.741-0.74 1.622-1.166 2.711-0.883 0.285-0.527 0.517-1.086 0.692-1.672-0.973-0.569-1.619-1.395-1.619-2.442zM10 13.652c-2.018 0-3.653-1.635-3.653-3.652 0-2.018 1.636-3.654 3.653-3.654s3.652 1.637 3.652 3.654c0 2.018-1.634 3.652-3.652 3.652z"></path>
</symbol>
<symbol id="icon-heart" viewBox="0 0 20 20">
<title>heart</title>
<path d="M17.19 4.155c-1.672-1.534-4.383-1.534-6.055 0l-1.135 1.042-1.136-1.042c-1.672-1.534-4.382-1.534-6.054 0-1.881 1.727-1.881 4.52 0 6.246l7.19 6.599 7.19-6.599c1.88-1.726 1.88-4.52 0-6.246z"></path>
</symbol>
<symbol id="icon-help" viewBox="0 0 20 20">
<title>help</title>
<path d="M14.090 2.233c-1.14-0.822-2.572-1.233-4.296-1.233-1.311 0-2.418 0.289-3.317 0.868-1.427 0.906-2.185 2.445-2.277 4.615h3.307c0-0.633 0.185-1.24 0.553-1.828 0.369-0.586 0.995-0.879 1.878-0.879 0.898 0 1.517 0.238 1.854 0.713 0.339 0.477 0.508 1.004 0.508 1.582 0 0.504-0.252 0.965-0.557 1.383-0.167 0.244-0.387 0.469-0.661 0.674 0 0-1.793 1.15-2.58 2.074-0.456 0.535-0.497 1.338-0.538 2.488-0.002 0.082 0.029 0.252 0.315 0.252s2.316 0 2.571 0c0.256 0 0.309-0.189 0.312-0.274 0.018-0.418 0.064-0.633 0.141-0.875 0.144-0.457 0.538-0.855 0.979-1.199l0.91-0.627c0.822-0.641 1.477-1.166 1.767-1.578 0.494-0.676 0.842-1.51 0.842-2.5-0.001-1.615-0.571-2.832-1.711-3.656zM9.741 14.924c-1.139-0.035-2.079 0.754-2.115 1.99-0.035 1.234 0.858 2.051 1.998 2.084 1.189 0.035 2.104-0.727 2.141-1.963 0.034-1.236-0.834-2.076-2.024-2.111z"></path>
</symbol>
<symbol id="icon-home" viewBox="0 0 20 20">
<title>home</title>
<path d="M18.672 11h-1.672v6c0 0.445-0.194 1-1 1h-4v-6h-4v6h-4c-0.806 0-1-0.555-1-1v-6h-1.672c-0.598 0-0.47-0.324-0.060-0.748l8.024-8.032c0.195-0.202 0.451-0.302 0.708-0.312 0.257 0.010 0.513 0.109 0.708 0.312l8.023 8.031c0.411 0.425 0.539 0.749-0.059 0.749z"></path>
</symbol>
<symbol id="icon-location-pin" viewBox="0 0 20 20">
<title>location-pin</title>
<path d="M10 2.009c-2.762 0-5 2.229-5 4.99 0 4.774 5 11 5 11s5-6.227 5-11c0-2.76-2.238-4.99-5-4.99zM10 9.76c-1.492 0-2.7-1.209-2.7-2.7s1.208-2.7 2.7-2.7c1.49 0 2.699 1.209 2.699 2.7s-1.209 2.7-2.699 2.7z"></path>
</symbol>
<symbol id="icon-login" viewBox="0 0 20 20">
<title>login</title>
<path d="M14 10l-6-5v3h-7v4h7v3l6-5zM17 17h-8v2h8c1.1 0 2-0.9 2-2v-14c0-1.1-0.9-2-2-2h-8v2h8v14z"></path>
</symbol>
<symbol id="icon-magnifying-glass" viewBox="0 0 20 20">
<title>magnifying-glass</title>
<path d="M17.545 15.467l-3.779-3.779c0.57-0.935 0.898-2.035 0.898-3.21 0-3.417-2.961-6.377-6.378-6.377s-6.186 2.769-6.186 6.186c0 3.416 2.961 6.377 6.377 6.377 1.137 0 2.2-0.309 3.115-0.844l3.799 3.801c0.372 0.371 0.975 0.371 1.346 0l0.943-0.943c0.371-0.371 0.236-0.84-0.135-1.211zM4.004 8.287c0-2.366 1.917-4.283 4.282-4.283s4.474 2.107 4.474 4.474c0 2.365-1.918 4.283-4.283 4.283s-4.473-2.109-4.473-4.474z"></path>
</symbol>
<symbol id="icon-map" viewBox="0 0 20 20">
<title>map</title>
<path d="M19.447 3.718l-6-3c-0.281-0.141-0.613-0.141-0.895 0l-5.63 2.815-5.606-1.869c-0.306-0.102-0.64-0.051-0.901 0.138s-0.415 0.49-0.415 0.811v13.001c0 0.379 0.214 0.725 0.553 0.894l6 3c0.141 0.070 0.294 0.106 0.447 0.106s0.307-0.035 0.447-0.106l5.63-2.814 5.606 1.869c0.305 0.1 0.64 0.049 0.901-0.139s0.415-0.49 0.415-0.81v-13.002c0.001-0.379-0.213-0.725-0.552-0.894zM8 5.231l4-2v11.763l-4 2v-11.763zM2 4l4 1.333v11.661l-4-2v-10.994zM18 16.227l-4-1.334v-11.662l4 2v10.996z"></path>
</symbol>
<symbol id="icon-star" viewBox="0 0 20 20">
<title>star</title>
<path d="M10 1.3l2.388 6.722h6.412l-5.232 3.948 1.871 6.928-5.439-4.154-5.438 4.154 1.87-6.928-5.233-3.948h6.412l2.389-6.722z"></path>
</symbol>
<symbol id="icon-tree" viewBox="0 0 20 20">
<title>tree</title>
<path d="M20 10c0-1.361-0.758-2.616-2.031-3.622-0.002-0.001-0.004-0.001-0.005-0.003-0.362-3.572-3.787-6.375-7.964-6.375s-7.602 2.803-7.964 6.375c-0.001 0.002-0.003 0.002-0.005 0.003-1.273 1.006-2.031 2.261-2.031 3.622 0 3.112 3.947 5.669 9 5.97 0 0.338 0 0.683 0 1.030 0 1-1.821 1.911-1.821 1.911-0.099 0.049-0.148 0.173-0.109 0.277 0 0 0.305 0.812 0.93 0.812s1.124-0.5 2.374-0.5 2.439 0.432 2.439 0.432c0.102 0.038 0.251 0.005 0.329-0.073l0.717-0.717c0.078-0.078 0.058-0.173-0.046-0.212 0 0-1.812-0.68-1.812-1.93 0-0.312 0-0.706 0-1.121 4.564-0.555 7.999-2.976 7.999-5.879zM2 10c0-1.019 0.768-1.945 2.022-2.651-0.010-0.116-0.022-0.232-0.022-0.349 0-2.762 2.687-5 6-5s6 2.238 6 5c0 0.117-0.012 0.233-0.021 0.349 1.253 0.706 2.021 1.632 2.021 2.651 0 1.864-2.551 3.424-5.999 3.869 0-0.401 0-0.668 0-0.668 0-0.11 0.065-0.262 0.145-0.337l1.833-1.726c0.080-0.076 0.146-0.227 0.146-0.337v-0.851c0-0.11-0.078-0.155-0.172-0.099l-1.779 1.047c-0.096 0.056-0.173 0.012-0.173-0.099v-3.599c0-0.11-0.085-0.172-0.19-0.137l-2.621 0.874c-0.104 0.035-0.189 0.153-0.189 0.263v2.6c0 0.11-0.079 0.158-0.177 0.107l-2.022-1.064c-0.097-0.051-0.24-0.030-0.318 0.048l-0.342 0.342c-0.078 0.078-0.073 0.201 0.009 0.273l2.7 2.361c0.083 0.073 0.15 0.222 0.15 0.332 0 0 0 0.298 0 0.765-3.945-0.245-7.001-1.924-7.001-3.964z"></path>
</symbol>
<symbol id="icon-user" viewBox="0 0 20 20">
<title>user</title>
<path d="M7.725 2.146c-1.016 0.756-1.289 1.953-1.239 2.59 0.064 0.779 0.222 1.793 0.222 1.793s-0.313 0.17-0.313 0.854c0.109 1.717 0.683 0.976 0.801 1.729 0.284 1.814 0.933 1.491 0.933 2.481 0 1.649-0.68 2.42-2.803 3.334-2.13 0.918-4.326 2.073-4.326 4.073v1h18v-1c0-2-2.197-3.155-4.328-4.072-2.123-0.914-2.801-1.684-2.801-3.334 0-0.99 0.647-0.667 0.932-2.481 0.119-0.753 0.692-0.012 0.803-1.729 0-0.684-0.314-0.854-0.314-0.854s0.158-1.014 0.221-1.793c0.065-0.817-0.398-2.561-2.3-3.096-0.333-0.34-0.558-0.881 0.466-1.424-2.24-0.105-2.761 1.067-3.954 1.929z"></path>
</symbol>
<symbol id="icon-evernote" viewBox="0 0 20 20">
<title>evernote</title>
<path d="M17.339 4.307c0-1.15-1.732-1.277-1.732-1.277l-4.069-0.256c0 0-0.087-1.107-0.909-1.492-0.822-0.383-1.726-0.266-2.376-0.26s-0.803 0.835-0.803 1.617c0 0.781 0.014 1.684 0.014 2.25 0 1.018-0.447 1.449-1.566 1.449h-2.307c-0.645-0.041-1.147 0.064-1.147 0.586 0 0.523 0.759 4.973 1.801 6 0.605 0.596 4.305 1.014 5.084 1.014s0.519-2.301 0.736-2.301c0.217 0 0.454 1.299 1.682 1.603 1.226 0.307 2.864 0.25 2.951 1.123 0.113 1.152 0.217 2.642-0.541 2.748l-1.716 0.068c-1.176-0.084-0.86-1.369-0.341-1.369s0.779-0.019 0.779-0.019l0.065-1.406c0 0-2.693-0.318-2.807 1.498-0.105 1.66 0.18 2.443 0.389 2.613 0.209 0.172 0.571 0.504 3.869 0.504 4.647 0 2.944-13.543 2.944-14.693zM15.44 10.32c-0.182 0.196-0.842-0.32-1.472-0.32s-1.311 0.334-1.471 0.113c-0.16-0.219 0.146-1.99 1.334-1.99s1.793 2.004 1.609 2.197z"></path>
<path d="M5.804 4.166c0-0.229 0.058-2.984 0.058-2.984l-3.505 3.44c0 0 2.422 0 2.898 0s0.549-0.229 0.549-0.456z"></path>
</symbol>
</defs>
</svg>
